<?xml version="1.0" standalone="no"?>
<!DOCTYPE svg PUBLIC "-//W3C//DTD SVG 20010904//EN"
 "http://www.w3.org/TR/2001/REC-SVG-20010904/DTD/svg10.dtd">
<svg version="1.0" xmlns="http://www.w3.org/2000/svg"
 width="338.000000pt" height="338.000000pt" viewBox="0 0 338.000000 338.000000"
 preserveAspectRatio="xMidYMid meet">
<metadata>
Created by potrace 1.14, written by Peter Selinger 2001-2017
</metadata>
<g transform="translate(0.000000,338.000000) scale(0.100000,-0.100000)"
fill="#000000" stroke="none">
<path d="M739 3170 c-400 -50 -662 -314 -724 -729 -40 -267 8 -527 151 -814
230 -464 736 -953 1397 -1351 l127 -77 128 77 c650 392 1153 875 1390 1336
204 397 226 819 61 1139 -185 357 -603 506 -1076 383 -159 -41 -362 -141 -458
-226 -18 -15 -37 -28 -43 -28 -6 0 -44 25 -84 55 -133 101 -331 186 -511 220
-101 19 -270 27 -358 15z m761 -1465 l0 -735 -180 0 -180 0 0 735 0 735 180 0
180 0 0 -735z m660 0 l0 -735 -180 0 -180 0 0 735 0 735 180 0 180 0 0 -735z"/>
</g>
</svg>
