<?xml version="1.0" standalone="no"?>
<!DOCTYPE svg PUBLIC "-//W3C//DTD SVG 20010904//EN"
 "http://www.w3.org/TR/2001/REC-SVG-20010904/DTD/svg10.dtd">
<svg version="1.0" xmlns="http://www.w3.org/2000/svg"
 width="280.000000pt" height="246.000000pt" viewBox="0 0 280.000000 246.000000"
 preserveAspectRatio="xMidYMid meet">
<metadata>
Created by potrace 1.14, written by Peter Selinger 2001-2017
</metadata>
<g transform="translate(0.000000,246.000000) scale(0.100000,-0.100000)"
fill="#000000" stroke="none">
<path d="M630 2433 c-268 -27 -488 -193 -571 -430 -70 -199 -65 -450 12 -669
153 -435 597 -899 1217 -1272 l102 -62 118 71 c595 361 1032 813 1189 1229 45
118 64 211 70 342 12 266 -51 455 -203 604 -231 227 -632 254 -984 68 -47 -25
-109 -64 -137 -86 l-53 -40 -52 40 c-190 146 -475 229 -708 205z m850 -1009
c187 -108 340 -200 340 -204 0 -7 -672 -400 -685 -400 -3 0 -5 180 -5 400 0
220 2 400 5 400 3 0 158 -88 345 -196z"/>
</g>
</svg>
