<?xml version="1.0" standalone="no"?>
<!DOCTYPE svg PUBLIC "-//W3C//DTD SVG 20010904//EN"
 "http://www.w3.org/TR/2001/REC-SVG-20010904/DTD/svg10.dtd">
<svg version="1.0" xmlns="http://www.w3.org/2000/svg"
 width="626.000000pt" height="626.000000pt" viewBox="0 0 626.000000 626.000000"
 preserveAspectRatio="xMidYMid meet">
<metadata>
Created by potrace 1.14, written by Peter Selinger 2001-2017
</metadata>
<g transform="translate(0.000000,626.000000) scale(0.100000,-0.100000)"
fill="#000000" stroke="none">
<path d="M1375 5874 c-497 -74 -854 -283 -1089 -639 -129 -195 -206 -397 -251
-664 -86 -499 2 -1025 260 -1542 296 -593 773 -1149 1500 -1749 50 -41 106
-86 125 -100 19 -14 66 -50 104 -80 73 -58 218 -163 360 -262 241 -168 713
-458 746 -458 45 0 614 360 910 575 45 33 92 67 104 75 56 37 400 310 416 330
3 3 64 55 135 115 155 130 559 531 669 665 43 52 88 106 100 120 50 58 207
274 277 380 62 93 229 382 229 396 0 1 17 40 39 86 171 367 262 793 247 1156
-7 175 -42 393 -84 532 -174 568 -557 913 -1157 1042 -100 21 -134 23 -375 23
-236 0 -278 -3 -380 -23 -120 -24 -210 -47 -320 -81 -268 -82 -589 -257 -769
-418 -20 -18 -38 -33 -41 -33 -3 0 -23 16 -45 35 -205 180 -529 348 -845 440
-220 63 -325 77 -590 80 -135 2 -258 1 -275 -1z m1145 -2744 l0 -910 -180 0
-180 0 0 910 0 910 180 0 180 0 0 -910z m1580 0 c0 -736 -2 -900 -13 -900 -7
0 -42 17 -78 39 -35 21 -98 57 -139 81 -41 24 -117 67 -167 96 -260 151 -588
340 -925 534 -137 78 -248 145 -248 150 0 4 114 73 253 153 138 80 340 196
447 258 274 158 379 219 422 243 113 64 254 146 333 193 49 29 95 53 102 53
11 0 13 -176 13 -900z"/>
</g>
</svg>
